<?xml version="1.0" standalone="no"?>
<!DOCTYPE svg PUBLIC "-//W3C//DTD SVG 20010904//EN"
 "http://www.w3.org/TR/2001/REC-SVG-20010904/DTD/svg10.dtd">
<svg version="1.0" xmlns="http://www.w3.org/2000/svg"
 width="1436.000000pt" height="1253.000000pt" viewBox="0 0 1436.000000 1253.000000"
 preserveAspectRatio="xMidYMid meet">

<g transform="translate(0.000000,1253.000000) scale(0.100000,-0.100000)"
fill="#FFFFFF" stroke="none">
<path d="M8053 11186 c-122 -23 -237 -65 -380 -138 -320 -163 -482 -198 -763
-163 -346 43 -611 -15 -836 -183 -84 -63 -191 -171 -289 -292 -134 -166 -298
-265 -528 -320 -323 -76 -525 -207 -684 -445 -60 -90 -96 -166 -148 -315 -94
-270 -215 -454 -396 -603 -239 -197 -322 -291 -405 -462 -67 -137 -86 -222
-91 -408 l-5 -159 -52 6 c-244 30 -449 33 -638 11 -567 -66 -940 -302 -1035
-655 -12 -44 -17 -103 -18 -180 0 -106 2 -119 28 -172 47 -95 176 -192 291
-218 31 -7 279 -12 680 -15 547 -4 677 -8 979 -30 461 -33 540 -33 832 6 95
13 122 25 168 80 69 80 84 190 46 328 -43 153 -104 255 -228 385 -141 146
-350 263 -635 356 l-69 23 6 101 c19 299 137 521 387 722 241 195 359 360 450
634 104 311 276 513 533 622 39 17 132 46 207 64 243 61 388 150 535 328 205
250 373 363 613 411 84 17 124 17 496 -1 217 -10 348 22 602 149 126 63 289
127 325 127 5 0 9 -178 9 -465 l0 -465 -22 -4 c-159 -28 -198 -39 -281 -80
-106 -52 -184 -109 -280 -203 -89 -88 -134 -158 -170 -262 -27 -77 -29 -94
-24 -176 6 -103 42 -218 128 -405 42 -91 54 -130 65 -212 8 -55 17 -105 21
-111 3 -6 7 -112 9 -236 2 -243 12 -323 58 -442 13 -36 31 -102 40 -146 8 -44
27 -106 41 -138 14 -32 25 -64 25 -73 0 -34 41 -150 68 -193 34 -52 106 -98
198 -125 77 -22 218 -15 374 20 139 31 205 63 376 182 142 99 183 144 275 302
54 92 91 134 70 79 -5 -13 -15 -62 -22 -108 -11 -77 -77 -360 -94 -402 -7 -16
-4 -18 16 -15 19 2 35 24 78 108 l55 105 8 -50 c5 -27 24 -86 42 -130 18 -44
46 -114 61 -155 15 -41 39 -100 53 -130 16 -37 33 -113 51 -229 l26 -174 -17
-105 c-10 -58 -20 -107 -22 -109 -2 -2 -368 6 -812 19 l-809 23 2 43 c3 74 39
161 133 322 50 85 110 192 133 237 41 80 41 82 23 102 -11 12 -25 21 -32 21
-7 0 -56 -63 -110 -140 -53 -77 -101 -143 -107 -147 -16 -10 0 83 34 198 25
84 30 115 26 163 -3 32 -10 63 -16 69 -13 13 -117 12 -152 -1 -23 -9 -29 -21
-43 -84 -9 -41 -30 -103 -47 -138 -17 -36 -68 -148 -114 -250 -46 -102 -104
-229 -129 -282 l-45 -98 -63 0 c-121 0 -652 20 -656 25 -13 12 132 238 214
334 110 129 162 177 254 237 125 81 224 121 389 159 85 19 156 37 159 39 2 3
1 9 -3 15 -16 26 -270 -1 -410 -44 -133 -40 -242 -121 -349 -259 -58 -73 -96
-131 -272 -408 l-49 -78 -185 6 c-545 18 -573 19 -621 41 -32 14 -63 42 -107
95 -68 84 -110 108 -190 108 -26 0 -70 3 -98 6 l-52 7 14 33 c8 18 14 43 14
55 0 19 -4 18 -41 -15 -51 -46 -98 -48 -113 -4 -8 24 -6 32 20 59 16 17 42 37
58 44 l30 13 -32 16 c-90 46 -161 -10 -191 -152 -9 -44 -8 -57 4 -76 18 -27
80 -36 256 -36 85 0 109 -3 120 -16 15 -19 6 -38 -33 -67 -32 -24 -181 -43
-408 -53 -194 -8 -892 8 -2175 51 -1162 39 -1188 39 -1229 20 -44 -21 -65 -57
-47 -79 15 -18 102 -23 621 -36 543 -14 931 -29 1070 -43 l114 -12 14 -95 c17
-122 60 -249 124 -369 150 -281 167 -330 175 -496 4 -74 -1 -131 -16 -219 -46
-262 -13 -534 88 -734 72 -141 169 -254 336 -388 132 -106 229 -220 293 -342
55 -108 68 -143 112 -317 38 -151 115 -311 201 -418 127 -159 314 -276 567
-356 302 -95 432 -185 608 -417 158 -210 321 -333 546 -412 166 -59 222 -65
563 -67 354 -1 396 -7 531 -77 44 -22 122 -63 174 -90 294 -151 618 -178 925
-77 49 16 167 67 260 114 195 98 250 114 395 122 85 4 124 1 205 -17 124 -27
357 -38 448 -21 134 26 271 83 392 164 33 22 150 131 260 241 291 293 371 341
770 461 172 52 319 140 436 262 123 127 188 248 258 478 35 115 101 257 163
347 60 89 187 218 309 314 164 128 253 234 333 391 65 131 81 205 81 393 0 91
-5 211 -11 268 -25 232 21 425 156 657 81 138 125 234 155 340 76 264 49 507
-84 765 -35 69 -83 163 -107 210 -81 159 -103 318 -69 509 72 404 -29 759
-297 1046 -40 43 -116 115 -169 161 -176 152 -278 306 -324 493 -60 244 -150
420 -289 569 -129 138 -282 230 -517 310 -233 80 -336 139 -477 276 -46 45
-119 126 -161 181 -162 209 -334 332 -553 396 -107 31 -327 37 -483 14 -265
-40 -433 1 -702 174 -107 68 -234 124 -348 152 -105 26 -313 34 -412 15z m333
-81 c107 -19 261 -79 364 -142 41 -25 110 -67 152 -93 171 -105 384 -141 622
-105 55 8 148 15 207 15 318 0 538 -119 774 -420 186 -237 359 -360 634 -451
230 -76 368 -156 497 -291 133 -137 220 -305 278 -536 15 -56 38 -128 51 -159
42 -95 132 -219 218 -301 237 -226 317 -311 372 -396 98 -151 148 -294 167
-483 10 -96 9 -129 -7 -250 -44 -320 -29 -453 72 -649 30 -60 80 -156 109
-214 76 -149 106 -269 107 -430 1 -199 -47 -352 -183 -585 -123 -211 -170
-367 -172 -580 0 -66 5 -161 12 -212 18 -129 9 -317 -20 -408 -62 -194 -166
-331 -380 -500 -256 -202 -403 -417 -486 -709 -54 -189 -161 -370 -277 -468
-124 -105 -226 -157 -417 -213 -325 -95 -519 -215 -743 -459 -132 -144 -211
-214 -299 -267 -213 -128 -414 -157 -704 -103 -118 23 -156 26 -254 21 -153
-8 -228 -30 -418 -127 -86 -43 -198 -93 -247 -109 -236 -79 -466 -80 -690 -5
-83 28 -133 51 -325 150 -179 93 -215 99 -580 99 -278 1 -314 3 -409 23 -272
59 -476 194 -654 431 -98 131 -140 175 -227 240 -111 83 -218 135 -404 196
-246 81 -354 141 -481 269 -126 127 -200 267 -255 488 -78 307 -172 455 -428
670 -164 137 -251 239 -313 366 -93 191 -121 427 -79 673 41 241 18 412 -79
599 -157 303 -191 390 -207 528 -7 67 -16 62 77 47 36 -5 37 -6 44 -62 17
-137 80 -305 170 -453 112 -185 150 -396 108 -601 -13 -61 -17 -128 -17 -249
1 -142 5 -178 26 -260 31 -115 72 -209 132 -298 58 -86 120 -150 255 -262 231
-191 323 -338 397 -628 60 -239 164 -418 319 -545 101 -84 211 -140 384 -197
327 -108 450 -191 615 -410 189 -252 384 -381 668 -441 92 -20 136 -22 408
-24 366 -2 369 -2 614 -130 247 -128 416 -172 621 -162 193 10 347 55 551 163
175 91 253 116 395 122 97 4 134 1 225 -19 86 -19 139 -24 254 -24 167 0 236
14 367 75 136 63 221 130 384 301 259 272 393 355 728 454 254 74 427 192 544
368 57 86 93 165 136 302 97 310 217 482 487 697 194 154 294 292 355 488 21
66 24 94 23 230 0 85 -4 225 -9 311 -6 129 -5 169 9 238 24 119 69 236 133
343 82 138 110 199 148 311 91 274 58 531 -105 827 -38 69 -80 150 -93 180
-55 126 -71 293 -43 455 47 269 21 485 -84 701 -81 167 -136 233 -418 496
-135 126 -212 255 -261 435 -55 199 -89 281 -165 397 -29 44 -75 105 -102 135
-108 120 -290 229 -489 292 -272 87 -439 206 -631 450 -166 212 -321 321 -533
376 -120 31 -282 34 -456 8 -242 -35 -422 8 -642 151 -110 72 -221 125 -338
160 -81 25 -106 27 -245 28 -206 1 -283 -20 -550 -149 -313 -151 -458 -181
-720 -150 -280 34 -465 10 -655 -84 -140 -70 -243 -156 -374 -314 -188 -228
-304 -302 -576 -371 -318 -79 -491 -194 -638 -421 -63 -99 -79 -133 -132 -285
-106 -303 -222 -468 -465 -661 -277 -221 -399 -458 -400 -776 l0 -112 -32 6
c-18 3 -44 10 -57 15 l-23 8 4 158 c5 132 10 171 32 245 62 206 167 350 381
522 241 192 373 381 474 678 74 215 155 352 278 468 132 124 270 194 495 249
272 66 434 166 595 369 144 180 257 276 414 351 176 84 378 108 624 75 160
-22 290 -16 430 20 125 31 170 49 377 151 274 134 450 168 674 129z m-186
-774 l0 -468 -31 -7 c-17 -3 -51 -6 -75 -6 l-44 0 2 468 3 467 35 6 c19 4 52
7 73 8 l37 1 0 -469z m134 463 c14 -5 16 -56 16 -470 l0 -464 -65 0 -65 0 0
470 0 470 49 0 c27 0 56 -3 65 -6z m130 -29 c107 -31 207 -78 309 -144 101
-66 176 -104 262 -131 97 -31 274 -38 416 -16 187 28 336 14 490 -45 159 -61
276 -158 441 -365 165 -207 313 -310 568 -394 414 -137 623 -360 735 -786 50
-193 147 -345 303 -477 242 -206 366 -389 428 -636 37 -145 41 -266 14 -446
-39 -262 -18 -387 104 -600 126 -222 168 -359 169 -550 1 -186 -23 -255 -211
-605 -103 -192 -139 -415 -108 -661 20 -166 20 -209 0 -306 -43 -210 -147
-364 -363 -537 -270 -216 -371 -366 -476 -706 -44 -139 -107 -250 -199 -347
-141 -150 -254 -211 -530 -288 -102 -28 -231 -90 -335 -159 -97 -65 -180 -141
-348 -318 -137 -145 -279 -234 -449 -279 -114 -30 -302 -31 -441 -1 -123 27
-277 29 -372 6 -36 -8 -142 -53 -236 -99 -93 -46 -199 -92 -235 -104 -88 -28
-187 -50 -194 -43 -3 3 -6 292 -6 643 l0 637 89 0 c113 -1 205 27 307 93 76
50 164 125 164 140 0 20 -29 5 -100 -52 -87 -70 -166 -113 -247 -134 -141 -38
-243 27 -329 209 -57 121 -95 272 -138 555 -81 528 -133 689 -274 842 -53 58
-153 119 -196 119 -12 1 15 20 64 45 165 86 312 235 504 509 120 173 255 323
351 391 275 196 578 191 885 -15 80 -54 80 -53 80 -33 0 12 -28 37 -77 70 -98
65 -138 85 -238 116 -322 101 -675 31 -952 -188 -104 -82 -171 -163 -303 -370
-224 -349 -349 -464 -552 -509 -46 -10 -34 -33 21 -38 148 -14 302 -180 382
-411 29 -84 53 -206 110 -562 17 -110 42 -237 55 -283 l24 -82 0 -835 c0 -458
-4 -836 -8 -839 -16 -9 -188 56 -292 111 -266 141 -250 137 -615 139 -255 1
-302 4 -393 23 -289 61 -468 182 -683 466 -127 168 -264 258 -525 343 -238 79
-361 149 -480 273 -115 122 -177 237 -223 419 -74 293 -181 472 -373 625 -221
177 -329 323 -379 510 -29 111 -37 328 -16 450 9 50 19 117 23 151 15 140 -39
347 -135 513 -27 47 -61 110 -76 140 -31 62 -75 226 -75 280 l0 37 170 -21
170 -20 121 -120 c66 -66 177 -185 246 -263 69 -79 156 -169 192 -199 73 -60
252 -153 393 -202 47 -16 112 -43 145 -59 52 -27 62 -37 90 -93 73 -144 84
-220 87 -594 l3 -280 41 -155 c95 -364 190 -529 345 -605 108 -52 271 -44 364
18 61 41 132 131 179 225 l37 74 -6 137 c-7 178 -31 324 -72 437 -47 130 -65
161 -159 277 -88 108 -122 166 -152 257 -16 49 -18 93 -19 392 0 239 -3 340
-11 348 -9 9 -14 -3 -19 -48 -4 -33 -4 -69 -1 -80 10 -32 -10 -137 -39 -201
-27 -59 -55 -93 -87 -104 -14 -5 -16 1 -15 36 l2 42 -126 5 c-86 3 -131 9
-143 19 -26 22 -19 31 27 31 63 0 156 19 197 40 39 21 33 24 -23 11 -28 -7
-41 -6 -52 5 -20 21 -106 17 -298 -11 -205 -30 -316 -32 -372 -6 -52 24 -200
175 -220 225 -17 40 -13 57 9 41 65 -48 71 -50 157 -53 l87 -4 5 -40 c3 -26
15 -51 32 -67 23 -23 33 -26 93 -25 84 1 152 23 268 86 132 72 199 127 216
180 17 47 33 51 78 19 39 -28 68 -77 80 -137 12 -58 5 -150 -13 -172 -16 -20
2 -28 20 -9 23 23 21 170 -3 252 -14 52 -27 69 -94 135 -43 41 -83 85 -89 97
l-12 23 -53 -30 c-30 -17 -87 -37 -127 -46 -47 -9 -124 -39 -211 -80 -152 -73
-171 -75 -208 -23 -12 16 -21 32 -19 33 2 2 38 11 79 19 85 18 158 48 182 74
9 10 22 42 30 71 l13 53 85 31 c83 30 94 32 240 28 78 -2 200 -123 200 -198 0
-34 40 -122 56 -122 22 0 18 21 -37 231 -5 20 -21 53 -35 74 l-25 37 338 -7
c186 -4 355 -10 376 -14 l38 -6 -200 -268 c-216 -288 -315 -429 -337 -483 -15
-37 -18 -74 -6 -74 19 0 375 463 514 670 l98 145 -28 6 c-19 5 -12 7 28 8 30
0 1306 -35 2835 -79 1529 -44 2893 -82 3030 -86 l250 -6 28 41 c16 23 27 47
24 54 -4 10 -151 17 -643 30 -352 10 -670 18 -709 18 -40 0 -62 4 -51 8 15 6
0 24 -95 113 -264 246 -530 446 -750 562 -167 88 -226 107 -364 116 -98 6
-131 12 -179 34 l-59 26 -24 -22 c-15 -14 -23 -33 -23 -54 0 -58 12 -63 172
-57 168 7 223 -4 350 -68 118 -59 192 -107 369 -238 86 -64 209 -153 275 -198
65 -46 154 -112 198 -148 l79 -65 -79 0 c-69 0 -1031 26 -1204 33 l-65 2 -17
80 c-10 44 -36 205 -58 358 -38 260 -40 282 -27 332 l14 54 -61 27 c-42 20
-78 28 -116 29 l-55 0 -7 -50 c-3 -27 -2 -98 4 -158 10 -114 0 -226 -26 -275
-13 -24 -15 -18 -40 94 -59 256 -81 320 -132 376 -38 42 -93 148 -117 223 -34
107 -50 281 -34 358 6 27 29 60 79 115 69 76 108 136 95 148 -3 4 -29 -19 -58
-50 -58 -63 -87 -76 -123 -52 -34 22 -39 44 -22 115 14 62 4 85 -15 34 -6 -16
-34 -77 -62 -137 l-52 -110 -17 105 c-9 57 -17 120 -17 138 -1 42 -13 32 -32
-24 -9 -26 -13 -96 -14 -205 0 -165 0 -165 -32 -230 -38 -78 -62 -102 -169
-167 l-81 -50 5 46 5 46 -103 -97 c-66 -62 -126 -108 -168 -130 -63 -32 -71
-33 -201 -36 -85 -2 -150 1 -178 9 -75 21 -173 126 -173 186 0 29 -53 169
-108 285 -27 59 -53 122 -57 140 -4 18 -23 61 -42 96 -32 58 -34 67 -28 120 4
31 16 77 26 101 10 24 19 53 19 64 0 19 -1 19 -20 2 -11 -10 -22 -26 -25 -36
-4 -11 -11 -19 -17 -19 -8 0 -9 34 -5 113 8 126 18 179 39 200 30 30 163 107
186 107 55 0 125 -62 125 -110 0 -16 -3 -33 -6 -36 -4 -4 -44 12 -89 35 -46
22 -95 41 -111 41 -35 0 -109 -65 -89 -78 7 -5 14 -15 15 -23 2 -8 6 -20 10
-26 10 -16 83 -17 125 -2 36 12 51 39 22 39 -11 0 -20 5 -20 10 0 6 3 10 8 10
15 0 86 -45 86 -55 1 -5 -28 -25 -64 -43 -58 -30 -72 -33 -127 -29 -46 3 -60
1 -57 -8 6 -15 68 -45 93 -45 10 0 22 -7 25 -16 6 -16 8 -16 24 0 10 9 24 16
30 16 6 0 27 14 47 31 49 44 44 21 -17 -67 -50 -70 -53 -78 -53 -137 0 -44 6
-73 21 -102 l21 -40 -30 -60 c-16 -33 -38 -72 -49 -87 -17 -25 -18 -30 -4 -63
12 -28 20 -35 34 -31 27 9 46 -17 82 -109 55 -142 52 -139 65 -70 l11 60 44 6
c25 4 61 14 80 23 34 15 34 16 5 11 -41 -7 -124 9 -143 29 -15 14 -15 18 -1
31 12 12 22 13 41 6 33 -13 65 -5 337 82 80 25 103 29 157 23 l64 -7 0 31 c0
17 -5 30 -12 30 -7 0 -41 18 -76 40 -34 22 -65 40 -68 40 -3 0 -25 15 -50 34
-25 19 -50 36 -56 38 -6 2 1 22 17 46 24 36 26 46 17 67 -10 21 -66 69 -112
95 -34 20 9 32 117 34 101 2 113 5 183 38 41 20 92 39 113 42 50 9 47 23 -6
31 -38 6 -50 3 -92 -24 -95 -60 -144 -64 -240 -18 -81 39 -89 47 -104 105 -7
23 -18 42 -26 42 -16 0 -30 -67 -26 -132 2 -31 -3 -55 -14 -72 -15 -22 -15
-31 -5 -55 6 -16 20 -37 31 -47 16 -14 23 -15 49 -4 16 7 30 18 30 24 1 13 60
-50 60 -64 0 -28 -41 -50 -92 -50 -44 -1 -60 -6 -93 -32 l-40 -30 50 6 c28 3
52 11 53 16 2 6 11 10 20 10 12 0 3 -13 -26 -41 -37 -35 -47 -40 -75 -34 -18
4 -36 12 -42 19 -6 7 -28 10 -58 8 -58 -5 -92 15 -113 65 -19 44 -12 66 39
127 49 59 95 182 102 276 5 55 2 71 -17 106 -41 75 -98 142 -135 159 -36 17
-38 17 -81 -6 -24 -13 -61 -39 -83 -57 -22 -19 -44 -30 -50 -26 -16 9 -5 196
14 249 90 249 120 297 255 406 99 80 220 142 332 170 168 43 425 9 614 -79
187 -88 366 -241 444 -381 30 -53 23 -53 -12 -1 -87 132 -334 324 -360 281 -4
-5 -7 -62 -7 -126 l-1 -117 47 -69 c26 -38 69 -89 96 -113 59 -53 79 -101 68
-165 -4 -25 -10 -103 -13 -173 l-6 -128 43 0 c23 0 65 -2 92 -5 l50 -5 37 49
c65 87 150 111 194 56 13 -16 26 -26 29 -23 11 11 -16 90 -39 113 -20 20 -21
25 -10 46 7 13 14 38 14 54 0 17 9 64 20 105 76 281 -12 620 -214 825 -60 62
-218 172 -345 242 -115 63 -138 86 -151 148 -9 43 -8 68 4 127 8 40 12 76 7
81 -18 18 -37 -9 -59 -84 -28 -102 -49 -147 -75 -160 -13 -8 -55 -9 -123 -4
l-104 7 0 464 c0 255 2 464 4 464 2 0 43 -11 90 -25z m-779 -2394 c7 -12 -12
-24 -25 -16 -11 7 -4 25 10 25 5 0 11 -4 15 -9z m580 -596 l40 -7 -80 -24
c-128 -39 -207 -54 -248 -47 -44 7 -57 21 -25 27 109 22 216 48 228 56 8 5 22
8 30 6 8 -2 33 -7 55 -11z m-5290 -123 l40 -7 -37 -23 c-53 -33 -105 -95 -134
-160 -27 -60 -68 -193 -80 -258 l-7 -39 48 65 c65 88 248 273 313 316 79 53
154 76 247 77 119 1 124 -5 69 -83 -64 -91 -129 -215 -148 -279 -9 -30 -16
-82 -16 -115 l0 -61 66 120 c122 219 170 276 272 323 47 21 64 24 121 19 100
-9 237 -52 308 -98 34 -23 66 -46 72 -52 7 -9 -16 -32 -80 -82 -67 -53 -105
-93 -154 -162 -36 -51 -65 -95 -65 -99 0 -3 11 1 25 10 14 9 78 44 142 77 72
37 137 80 168 109 66 62 94 80 126 80 32 0 219 -124 300 -198 72 -66 102 -127
103 -207 2 -221 -178 -341 -539 -361 -93 -5 -133 -2 -257 20 -81 15 -202 31
-270 36 -68 5 -166 14 -218 20 -211 22 -759 2 -950 -34 -221 -43 -334 4 -413
172 -27 57 -31 80 -35 173 -14 327 143 502 588 661 118 42 287 59 395 40z
m1900 -1491 c61 -6 118 -13 127 -16 34 -13 44 -100 13 -125 -17 -14 -140 -40
-194 -40 -24 0 -84 -8 -132 -17 -69 -13 -94 -14 -113 -5 -46 21 -60 142 -21
181 11 11 43 18 108 22 51 3 94 6 97 7 3 1 55 -2 115 -7z m542 -153 c16 -15
23 -33 23 -61 0 -58 -40 -89 -216 -171 -124 -58 -160 -70 -215 -74 -61 -4 -67
-3 -83 19 -28 41 -21 83 21 119 43 38 103 66 256 119 62 22 126 46 142 55 39
21 44 20 72 -6z m2463 -2703 c18 -35 55 -91 81 -125 l49 -60 0 -704 0 -704
-47 5 c-27 3 -64 8 -83 12 l-35 7 -3 817 c-1 449 -1 817 1 817 2 0 19 -29 37
-65z m263 -268 l47 -21 0 -647 0 -646 -46 -7 c-26 -3 -62 -6 -80 -6 l-34 0 0
696 0 696 33 -22 c17 -12 53 -31 80 -43z"/>
<path d="M8130 9335 c-59 -16 -182 -74 -215 -100 -19 -15 -16 -16 50 -11 39 3
133 21 211 41 77 19 167 39 200 43 l59 9 -30 13 c-47 19 -210 23 -275 5z"/>
<path d="M7828 8804 c-5 -4 -8 -54 -8 -110 0 -80 3 -106 16 -118 37 -38 51 0
30 86 -8 35 -19 83 -23 106 -4 24 -11 40 -15 36z"/>
<path d="M8130 8688 c-61 -63 -84 -194 -25 -138 20 19 24 19 76 5 30 -8 98
-23 152 -32 84 -14 110 -15 183 -5 82 12 134 28 134 42 0 16 -78 39 -220 66
-19 3 -69 17 -110 30 -41 14 -91 30 -110 36 -19 6 -40 13 -46 15 -7 2 -22 -6
-34 -19z"/>
<path d="M8561 8491 c-12 -8 -10 -11 11 -16 32 -8 58 -4 61 10 3 13 -54 18
-72 6z"/>
<path d="M8213 8465 c-12 -8 -29 -35 -39 -61 -16 -42 -16 -46 0 -62 25 -25
145 -21 216 7 37 16 70 21 104 19 110 -7 38 46 -118 87 -114 29 -134 30 -163
10z m142 -45 c-3 -5 -10 -10 -16 -10 -5 0 -9 5 -9 10 0 6 7 10 16 10 8 0 12
-4 9 -10z m-117 -35 c15 -33 15 -35 -2 -35 -20 0 -37 25 -30 44 9 23 19 20 32
-9z"/>
<path d="M8250 8053 c0 -4 13 -32 28 -61 21 -43 43 -65 107 -111 l80 -57 3
-62 c2 -34 6 -62 10 -62 20 1 36 23 48 70 15 59 10 74 -41 109 -18 12 -65 55
-104 96 -45 46 -83 76 -101 80 -17 4 -30 3 -30 -2z"/>
<path d="M7303 5715 c-102 -28 -167 -76 -208 -155 -9 -17 -19 -30 -23 -30 -4
0 -70 -5 -147 -10 -260 -20 -394 -67 -506 -179 -76 -76 -110 -142 -133 -253
-21 -101 -21 -168 -1 -168 12 0 15 13 15 58 1 240 148 417 401 481 71 18 355
49 363 40 2 -2 -5 -52 -15 -110 -10 -58 -27 -241 -39 -405 -39 -569 -72 -752
-168 -938 -80 -154 -185 -228 -324 -229 -124 0 -230 71 -287 193 -23 48 -26
68 -26 160 0 97 2 109 29 158 36 64 97 122 168 158 42 22 71 28 140 32 86 4
87 4 118 -26 19 -20 30 -41 30 -59 0 -30 -33 -93 -50 -93 -5 0 -10 -5 -10 -11
0 -18 67 -39 124 -39 48 0 58 3 71 24 40 61 25 132 -37 180 -85 63 -278 75
-391 24 -75 -35 -160 -116 -194 -187 -25 -50 -28 -67 -28 -161 0 -99 2 -110
32 -171 67 -136 178 -210 341 -229 315 -35 515 164 596 590 17 90 40 331 61
650 15 226 35 402 53 465 8 30 9 30 98 36 122 8 190 26 230 61 57 50 41 120
-32 148 -37 14 -191 11 -251 -5z m256 -34 c45 -32 48 -47 18 -79 -16 -16 -47
-35 -69 -42 -43 -12 -219 -32 -226 -25 -8 7 45 89 76 118 59 56 146 68 201 28z"/>
<path d="M8452 5521 c69 -7 108 -34 125 -85 11 -30 10 -43 -1 -69 -20 -47 -68
-87 -128 -108 l-53 -18 41 -1 c55 0 143 45 172 90 19 28 23 45 19 83 -7 81
-61 118 -169 116 l-63 -2 57 -6z"/>
<path d="M8316 5489 c-44 -30 -96 -86 -96 -104 0 -5 11 7 25 26 32 43 59 65
110 89 22 11 33 20 24 20 -8 0 -37 -14 -63 -31z"/>
<path d="M8387 5479 c-27 -16 -35 -47 -47 -186 -15 -173 -44 -235 -115 -246
-20 -3 -13 -5 21 -6 43 -1 55 3 78 25 32 33 55 106 62 199 10 154 15 177 39
201 l24 24 -22 0 c-12 0 -30 -5 -40 -11z"/>
<path d="M8779 5384 c-5 -16 -16 -72 -24 -126 -11 -79 -19 -105 -44 -142 -17
-25 -41 -52 -53 -61 -13 -8 -17 -15 -11 -15 6 0 30 21 53 48 l42 47 -7 -47
c-6 -39 -4 -49 9 -54 23 -9 26 -3 34 52 4 26 12 49 18 51 6 2 29 -10 52 -27
30 -21 42 -37 42 -55 0 -26 7 -29 34 -19 45 17 -8 92 -77 109 -27 7 -27 8 27
42 59 37 77 66 54 90 -13 12 -18 9 -41 -24 -15 -21 -43 -51 -62 -66 l-36 -29
6 39 c4 21 14 70 22 108 21 98 21 100 -4 103 -17 3 -26 -4 -34 -24z"/>
<path d="M10138 5319 c-19 -7 -35 -27 -51 -62 -71 -153 -168 -554 -198 -822
-10 -90 -20 -125 -51 -195 -66 -145 -161 -312 -201 -355 l-39 -40 -20 25 c-19
23 -20 35 -15 170 8 212 75 542 137 673 l27 58 -22 15 c-12 8 -47 20 -77 26
-74 15 -114 0 -138 -54 l-17 -38 -25 20 c-14 11 -50 32 -79 47 -45 22 -67 27
-129 27 -191 0 -323 -144 -387 -424 -35 -154 -37 -350 -4 -451 38 -120 101
-179 191 -179 118 0 236 132 325 362 l24 63 1 -80 c2 -160 42 -298 94 -323 43
-21 59 -22 91 -6 55 26 144 152 234 332 28 56 52 102 54 102 1 0 3 -57 3 -128
2 -155 22 -238 69 -288 25 -26 41 -34 66 -34 73 0 133 65 245 262 35 62 67
119 72 127 6 11 -46 -477 -64 -596 -4 -29 -16 -39 -102 -90 -53 -31 -117 -75
-141 -97 -143 -132 -79 -296 116 -296 185 1 286 143 324 451 l11 97 69 67
c113 109 166 198 271 455 67 162 75 190 59 190 -15 0 -41 -54 -91 -190 -63
-167 -104 -254 -155 -325 -40 -57 -123 -140 -132 -132 -5 6 124 802 146 906
12 52 31 115 43 139 20 43 20 46 3 58 -25 19 -120 37 -154 29 -53 -11 -81 -61
-116 -207 -14 -57 -33 -152 -43 -213 -17 -98 -27 -125 -92 -255 -80 -160 -151
-274 -177 -284 -89 -34 -61 323 67 876 52 221 106 409 140 485 27 58 27 63 11
77 -10 9 -41 20 -71 26 -62 12 -66 12 -102 -1z m-717 -600 c21 -17 39 -35 39
-39 0 -5 -7 -38 -15 -75 -9 -36 -22 -112 -30 -168 -32 -228 -172 -550 -259
-596 -41 -23 -72 -7 -93 46 -15 40 -18 76 -17 208 0 183 16 285 69 432 51 142
116 232 180 245 27 6 79 -15 126 -53z m816 -1298 c-11 -101 -53 -216 -96 -261
-68 -71 -163 -49 -177 42 -12 73 54 152 196 234 41 24 77 43 79 43 2 1 1 -25
-2 -58z"/>
<path d="M8210 5296 c0 -8 4 -17 9 -20 5 -4 7 3 4 14 -6 23 -13 26 -13 6z"/>
<path d="M8606 5258 c-66 -66 -69 -194 -5 -217 27 -9 41 0 19 14 -5 3 -10 26
-10 50 0 35 4 45 20 50 28 9 72 78 68 107 -5 38 -51 37 -92 -4z m84 -9 c0 -22
-65 -98 -75 -88 -3 4 1 24 10 45 28 67 65 92 65 43z"/>
<path d="M9022 5280 c-55 -23 -85 -187 -42 -230 24 -24 32 -25 57 -2 10 9 13
13 6 9 -21 -15 -33 3 -33 49 0 61 18 128 41 153 10 11 19 23 19 26 0 7 -21 5
-48 -5z"/>
<path d="M9125 5280 c-4 -6 -16 -8 -28 -4 -20 5 -20 5 -5 -7 14 -12 15 -22 7
-64 -5 -27 -16 -67 -24 -88 -9 -21 -11 -36 -5 -32 5 3 10 14 11 23 0 9 6 -1
13 -23 17 -58 46 -59 81 -3 l27 43 -5 -43 c-4 -33 -2 -45 10 -49 21 -8 39 18
47 68 4 22 20 69 36 105 33 74 56 86 46 23 -6 -38 -5 -40 16 -37 19 2 23 9 23
42 0 80 -57 68 -97 -21 -10 -24 -21 -43 -23 -43 -2 0 3 25 10 55 11 51 11 55
-6 60 -30 10 -38 -2 -45 -64 -7 -61 -48 -151 -73 -159 -11 -4 -13 7 -7 57 4
34 13 82 21 108 11 37 12 49 2 55 -16 10 -25 10 -32 -2z"/>
<path d="M9405 5280 c-11 -18 -33 -235 -24 -244 17 -19 38 5 48 57 14 63 65
177 81 177 6 0 9 -8 6 -17 -3 -10 -10 -55 -16 -99 -9 -62 -9 -87 0 -103 18
-35 28 -27 87 65 10 17 12 14 12 -18 1 -28 7 -41 25 -53 32 -21 59 -8 85 43
17 31 20 34 21 14 0 -33 18 -62 38 -62 18 0 66 68 76 110 4 14 -7 -1 -24 -32
-34 -65 -50 -73 -50 -25 0 33 22 140 34 169 9 21 -29 35 -49 18 -8 -6 -20 -8
-27 -4 -10 6 -9 3 1 -9 18 -23 8 -94 -24 -165 -30 -66 -49 -64 -53 6 -4 63 12
126 39 153 26 26 24 32 -8 24 -41 -10 -62 -33 -77 -85 -16 -54 -51 -126 -66
-135 -13 -8 -12 -3 5 70 18 75 19 116 2 139 -23 31 -53 11 -87 -57 -25 -52
-29 -57 -24 -27 3 19 9 47 14 62 6 20 5 28 -7 32 -21 8 -31 7 -38 -4z"/>
<path d="M8179 5207 c-45 -34 -50 -94 -13 -134 l26 -28 -21 29 c-36 49 -20
115 33 136 12 5 15 9 6 9 -8 0 -22 -5 -31 -12z"/>
<path d="M8259 5206 c8 -10 9 -16 1 -21 -15 -9 -2 -25 21 -25 24 0 27 45 3 54
-27 10 -37 7 -25 -8z"/>
<path d="M10563 5115 c-34 -24 -47 -76 -29 -118 23 -56 77 -73 135 -42 34 17
41 33 41 86 0 54 -34 89 -87 89 -21 0 -48 -7 -60 -15z"/>
<path d="M8205 4810 c-54 -21 -67 -81 -110 -515 -36 -356 -49 -456 -66 -487
-21 -38 84 -82 141 -58 43 18 67 78 106 267 74 364 313 855 358 737 20 -51 -2
-255 -32 -307 -15 -24 -15 -29 -2 -37 8 -5 35 -10 58 -10 110 0 157 65 157
220 0 82 -3 100 -23 133 -13 21 -37 44 -52 52 -37 19 -103 19 -138 1 -90 -48
-192 -224 -287 -499 -26 -76 -49 -136 -50 -135 -4 5 52 355 70 436 10 42 27
97 38 121 20 43 20 44 2 57 -40 30 -127 42 -170 24z"/>
<path d="M9500 3420 c-25 -25 -25 -37 0 -78 l21 -33 -26 -30 c-14 -17 -25 -38
-25 -48 0 -27 29 -61 53 -61 20 1 20 2 5 11 -23 13 -25 91 -3 109 13 10 19 9
36 -6 33 -30 42 -63 24 -90 -19 -29 -3 -32 25 -4 35 35 26 69 -33 125 -63 58
-71 75 -51 104 19 27 1 28 -26 1z"/>
<path d="M9562 3428 c21 -18 26 -38 17 -70 -10 -38 7 -36 26 3 15 28 15 33 0
55 -8 13 -25 24 -37 24 -19 0 -20 -1 -6 -12z"/>
<path d="M9405 3371 c-6 -5 -26 -11 -45 -13 -35 -3 -35 -3 -38 -56 -3 -51 -2
-52 21 -47 57 15 76 -58 28 -106 -33 -32 -24 -38 20 -12 79 47 46 153 -41 130
-17 -4 -20 0 -20 29 0 34 0 34 45 34 41 0 45 2 45 25 0 28 -2 29 -15 16z"/>
<path d="M9040 3360 c-8 -5 -26 -10 -40 -11 -15 0 -19 -3 -10 -6 28 -10 40
-37 40 -89 0 -43 -4 -56 -22 -68 -21 -15 -20 -16 37 -15 40 0 53 3 40 8 -17 7
-21 20 -25 99 -4 78 -7 90 -20 82z"/>
<path d="M9145 3345 c-18 -18 -25 -35 -25 -65 0 -55 29 -84 76 -77 45 8 45
-12 -1 -52 -21 -19 -30 -31 -21 -31 29 0 85 60 97 103 30 110 -55 193 -126
122z m79 -7 c9 -12 16 -42 16 -65 0 -37 -4 -45 -25 -55 -37 -17 -58 8 -58 66
0 70 36 99 67 54z"/>
</g>
</svg>
